<svg xmlns="http://www.w3.org/2000/svg" xmlns:xlink="http://www.w3.org/1999/xlink" width="694" height="196" viewBox="0 0 694 196">
  <defs>
    <clipPath id="clip-Plan_de_travail_2">
      <rect width="694" height="196"/>
    </clipPath>
  </defs>
  <g id="Plan_de_travail_2" data-name="Plan de travail – 2" clip-path="url(#clip-Plan_de_travail_2)">
    <g id="Groupe_1" data-name="Groupe 1" transform="translate(6 -388)">
      <path id="Polygone_8" data-name="Polygone 8" d="M18,0,36,32H0Z" transform="matrix(0.799, -0.602, 0.602, 0.799, 16.996, 455.055)" fill="#fff"/>
      <path id="Polygone_8-2" data-name="Polygone 8" d="M18,0,36,32H0Z" transform="matrix(0.799, -0.602, 0.602, 0.799, 85.996, 455.055)" fill="#fff"/>
      <path id="Polygone_8-3" data-name="Polygone 8" d="M18,0,36,32H0Z" transform="matrix(0.799, -0.602, 0.602, 0.799, 154.996, 455.055)" fill="#fff"/>
      <path id="Polygone_8-4" data-name="Polygone 8" d="M18,0,36,32H0Z" transform="matrix(0.799, -0.602, 0.602, 0.799, 223.996, 455.055)" fill="#fff"/>
      <path id="Polygone_8-5" data-name="Polygone 8" d="M18,0,36,32H0Z" transform="matrix(0.799, -0.602, 0.602, 0.799, 292.996, 455.055)" fill="#fff"/>
      <path id="Polygone_8-6" data-name="Polygone 8" d="M18,0,36,32H0Z" transform="matrix(0.799, -0.602, 0.602, 0.799, 361.996, 455.055)" fill="#fff"/>
      <path id="Polygone_8-7" data-name="Polygone 8" d="M18,0,36,32H0Z" transform="matrix(0.799, -0.602, 0.602, 0.799, 430.996, 455.055)" fill="#fff"/>
      <path id="Polygone_8-8" data-name="Polygone 8" d="M18,0,36,32H0Z" transform="matrix(0.799, -0.602, 0.602, 0.799, 499.996, 455.055)" fill="#fff"/>
      <path id="Polygone_8-9" data-name="Polygone 8" d="M18,0,36,32H0Z" transform="matrix(0.799, -0.602, 0.602, 0.799, 568.996, 455.055)" fill="#fff"/>
      <path id="Polygone_8-10" data-name="Polygone 8" d="M18,0,36,32H0Z" transform="matrix(0.799, -0.602, 0.602, 0.799, 637.996, 455.055)" fill="#fff"/>
    </g>
    <g id="Groupe_2" data-name="Groupe 2" transform="translate(3 -341)">
      <path id="Polygone_8-11" data-name="Polygone 8" d="M18,0,36,32H0Z" transform="matrix(0.799, -0.602, 0.602, 0.799, 16.996, 455.055)" fill="#fff"/>
      <path id="Polygone_8-12" data-name="Polygone 8" d="M18,0,36,32H0Z" transform="matrix(0.799, -0.602, 0.602, 0.799, 85.996, 455.055)" fill="#fff"/>
      <path id="Polygone_8-13" data-name="Polygone 8" d="M18,0,36,32H0Z" transform="matrix(0.799, -0.602, 0.602, 0.799, 154.996, 455.055)" fill="#fff"/>
      <path id="Polygone_8-14" data-name="Polygone 8" d="M18,0,36,32H0Z" transform="matrix(0.799, -0.602, 0.602, 0.799, 223.996, 455.055)" fill="#fff"/>
      <path id="Polygone_8-15" data-name="Polygone 8" d="M18,0,36,32H0Z" transform="matrix(0.799, -0.602, 0.602, 0.799, 292.996, 455.055)" fill="#fff"/>
      <path id="Polygone_8-16" data-name="Polygone 8" d="M18,0,36,32H0Z" transform="matrix(0.799, -0.602, 0.602, 0.799, 361.996, 455.055)" fill="#fff"/>
      <path id="Polygone_8-17" data-name="Polygone 8" d="M18,0,36,32H0Z" transform="matrix(0.799, -0.602, 0.602, 0.799, 430.996, 455.055)" fill="#fff"/>
      <path id="Polygone_8-18" data-name="Polygone 8" d="M18,0,36,32H0Z" transform="matrix(0.799, -0.602, 0.602, 0.799, 499.996, 455.055)" fill="#fff"/>
      <path id="Polygone_8-19" data-name="Polygone 8" d="M18,0,36,32H0Z" transform="matrix(0.799, -0.602, 0.602, 0.799, 568.996, 455.055)" fill="#fff"/>
      <path id="Polygone_8-20" data-name="Polygone 8" d="M18,0,36,32H0Z" transform="matrix(0.799, -0.602, 0.602, 0.799, 637.996, 455.055)" fill="#fff"/>
    </g>
    <rect id="Rectangle_1" data-name="Rectangle 1" width="695" height="54" transform="translate(0 69)" fill="#fff"/>
    <g id="Groupe_3" data-name="Groupe 3" transform="translate(6 -388)">
      <path id="Polygone_8-21" data-name="Polygone 8" d="M18,0,36,32H0Z" transform="matrix(0.799, -0.602, 0.602, 0.799, 16.996, 455.055)" fill="#fff"/>
      <path id="Polygone_8-22" data-name="Polygone 8" d="M18,0,36,32H0Z" transform="matrix(0.799, -0.602, 0.602, 0.799, 85.996, 455.055)" fill="#fff"/>
      <path id="Polygone_8-23" data-name="Polygone 8" d="M18,0,36,32H0Z" transform="matrix(0.799, -0.602, 0.602, 0.799, 154.996, 455.055)" fill="#fff"/>
      <path id="Polygone_8-24" data-name="Polygone 8" d="M18,0,36,32H0Z" transform="matrix(0.799, -0.602, 0.602, 0.799, 223.996, 455.055)" fill="#fff"/>
      <path id="Polygone_8-25" data-name="Polygone 8" d="M18,0,36,32H0Z" transform="matrix(0.799, -0.602, 0.602, 0.799, 292.996, 455.055)" fill="#fff"/>
      <path id="Polygone_8-26" data-name="Polygone 8" d="M18,0,36,32H0Z" transform="matrix(0.799, -0.602, 0.602, 0.799, 361.996, 455.055)" fill="#fff"/>
      <path id="Polygone_8-27" data-name="Polygone 8" d="M18,0,36,32H0Z" transform="matrix(0.799, -0.602, 0.602, 0.799, 430.996, 455.055)" fill="#fff"/>
      <path id="Polygone_8-28" data-name="Polygone 8" d="M18,0,36,32H0Z" transform="matrix(0.799, -0.602, 0.602, 0.799, 499.996, 455.055)" fill="#fff"/>
      <path id="Polygone_8-29" data-name="Polygone 8" d="M18,0,36,32H0Z" transform="matrix(0.799, -0.602, 0.602, 0.799, 568.996, 455.055)" fill="#fff"/>
      <path id="Polygone_8-30" data-name="Polygone 8" d="M18,0,36,32H0Z" transform="matrix(0.799, -0.602, 0.602, 0.799, 637.996, 455.055)" fill="#fff"/>
    </g>
    <g id="Groupe_4" data-name="Groupe 4" transform="translate(3 -341)">
      <path id="Polygone_8-31" data-name="Polygone 8" d="M18,0,36,32H0Z" transform="matrix(0.799, -0.602, 0.602, 0.799, 16.996, 455.055)" fill="#fff"/>
      <path id="Polygone_8-32" data-name="Polygone 8" d="M18,0,36,32H0Z" transform="matrix(0.799, -0.602, 0.602, 0.799, 85.996, 455.055)" fill="#fff"/>
      <path id="Polygone_8-33" data-name="Polygone 8" d="M18,0,36,32H0Z" transform="matrix(0.799, -0.602, 0.602, 0.799, 154.996, 455.055)" fill="#fff"/>
      <path id="Polygone_8-34" data-name="Polygone 8" d="M18,0,36,32H0Z" transform="matrix(0.799, -0.602, 0.602, 0.799, 223.996, 455.055)" fill="#fff"/>
      <path id="Polygone_8-35" data-name="Polygone 8" d="M18,0,36,32H0Z" transform="matrix(0.799, -0.602, 0.602, 0.799, 292.996, 455.055)" fill="#fff"/>
      <path id="Polygone_8-36" data-name="Polygone 8" d="M18,0,36,32H0Z" transform="matrix(0.799, -0.602, 0.602, 0.799, 361.996, 455.055)" fill="#fff"/>
      <path id="Polygone_8-37" data-name="Polygone 8" d="M18,0,36,32H0Z" transform="matrix(0.799, -0.602, 0.602, 0.799, 430.996, 455.055)" fill="#fff"/>
      <path id="Polygone_8-38" data-name="Polygone 8" d="M18,0,36,32H0Z" transform="matrix(0.799, -0.602, 0.602, 0.799, 499.996, 455.055)" fill="#fff"/>
      <path id="Polygone_8-39" data-name="Polygone 8" d="M18,0,36,32H0Z" transform="matrix(0.799, -0.602, 0.602, 0.799, 568.996, 455.055)" fill="#fff"/>
      <path id="Polygone_8-40" data-name="Polygone 8" d="M18,0,36,32H0Z" transform="matrix(0.799, -0.602, 0.602, 0.799, 637.996, 455.055)" fill="#fff"/>
    </g>
    <rect id="Rectangle_2" data-name="Rectangle 2" width="695" height="54" transform="translate(0 69)" fill="#fff"/>
  </g>
</svg>
