<svg xmlns="http://www.w3.org/2000/svg" width="187.2" height="416" viewBox="0 0 187.2 416">
  <g id="XMLID_287_" transform="translate(-991.6 -101.1)">
    <g id="XMLID_235_">
      <g id="XMLID_239_">
        <g id="XMLID_317_">
          <g id="XMLID_327_">
            <path id="XMLID_515_" d="M1125.8,232.6a7.917,7.917,0,0,1-7.9-7.9v-46a7.9,7.9,0,0,1,15.8,0v46A7.917,7.917,0,0,1,1125.8,232.6Z" fill="#7e94af"/>
            <path id="XMLID_512_" d="M1125.8,175.3a3.372,3.372,0,0,1,3.4,3.4v46a3.4,3.4,0,0,1-6.8,0v-46a3.436,3.436,0,0,1,3.4-3.4m0-9a12.4,12.4,0,0,0-12.4,12.4v46a12.4,12.4,0,0,0,24.8,0v-46a12.463,12.463,0,0,0-12.4-12.4Z" fill="#101219"/>
          </g>
          <g id="XMLID_321_">
            <path id="XMLID_475_" d="M1154.9,287.4a7.917,7.917,0,0,1-7.9-7.9v-46a7.9,7.9,0,0,1,15.8,0v46A7.982,7.982,0,0,1,1154.9,287.4Z" fill="#7e94af"/>
            <path id="XMLID_443_" d="M1154.9,230.1a3.372,3.372,0,0,1,3.4,3.4v46a3.4,3.4,0,0,1-6.8,0v-46a3.436,3.436,0,0,1,3.4-3.4m0-9a12.4,12.4,0,0,0-12.4,12.4v46a12.4,12.4,0,0,0,24.8,0v-46a12.528,12.528,0,0,0-12.4-12.4Z" fill="#101219"/>
          </g>
          <line id="XMLID_320_" y1="22.4" stroke-width="9" transform="translate(1154.9 187.1)" stroke="#5ef7f7" stroke-linecap="round" stroke-linejoin="round" stroke-miterlimit="10" fill="none"/>
          <line id="XMLID_319_" y1="37.8" stroke-width="9" transform="translate(1154.9 131.1)" stroke="#5ef7f7" stroke-linecap="round" stroke-linejoin="round" stroke-miterlimit="10" fill="none"/>
          <line id="XMLID_318_" y1="39.9" stroke-width="9" transform="translate(1125.8 117.1)" stroke="#5ef7f7" stroke-linecap="round" stroke-linejoin="round" stroke-miterlimit="10" fill="none"/>
        </g>
      </g>
      <g id="XMLID_247_">
        <g id="XMLID_248_">
          <g id="XMLID_328_">
            <path id="XMLID_441_" d="M1044.6,232.6a7.917,7.917,0,0,1-7.9-7.9v-46a7.9,7.9,0,0,1,15.8,0v46A7.917,7.917,0,0,1,1044.6,232.6Z" fill="#7e94af"/>
            <path id="XMLID_391_" d="M1044.6,175.3a3.372,3.372,0,0,1,3.4,3.4v46a3.4,3.4,0,0,1-6.8,0v-46a3.5,3.5,0,0,1,3.4-3.4m0-9a12.4,12.4,0,0,0-12.4,12.4v46a12.4,12.4,0,0,0,24.8,0v-46a12.462,12.462,0,0,0-12.4-12.4Z" fill="#101219"/>
          </g>
          <g id="XMLID_258_">
            <path id="XMLID_353_" d="M1015.5,287.4a7.917,7.917,0,0,1-7.9-7.9v-46a7.9,7.9,0,0,1,15.8,0v46A7.853,7.853,0,0,1,1015.5,287.4Z" fill="#7e94af"/>
            <path id="XMLID_349_" d="M1015.5,230.1a3.372,3.372,0,0,1,3.4,3.4v46a3.4,3.4,0,0,1-6.8,0v-46a3.578,3.578,0,0,1,3.4-3.4m0-9a12.4,12.4,0,0,0-12.4,12.4v46a12.4,12.4,0,0,0,24.8,0v-46a12.4,12.4,0,0,0-12.4-12.4Z" fill="#101219"/>
          </g>
          <line id="XMLID_256_" y1="11.2" stroke-width="9" transform="translate(1015.5 198.3)" stroke="#5ef7f7" stroke-linecap="round" stroke-linejoin="round" stroke-miterlimit="10" fill="none"/>
          <line id="XMLID_252_" y1="24.6" stroke-width="9" transform="translate(1015.5 157)" stroke="#5ef7f7" stroke-linecap="round" stroke-linejoin="round" stroke-miterlimit="10" fill="none"/>
          <line id="XMLID_249_" y1="51.4" stroke-width="9" transform="translate(1044.6 105.6)" stroke="#5ef7f7" stroke-linecap="round" stroke-linejoin="round" stroke-miterlimit="10" fill="none"/>
        </g>
      </g>
    </g>
    <line id="XMLID_283_" y2="14.2" stroke-width="9" transform="translate(1108.3 444.8)" stroke="#101219" stroke-linecap="round" stroke-linejoin="round" stroke-miterlimit="10" fill="#bfcfe8"/>
    <line id="XMLID_277_" y2="16.9" stroke-width="9" transform="translate(1131.5 437.3)" stroke="#101219" stroke-linecap="round" stroke-linejoin="round" stroke-miterlimit="10" fill="#bfcfe8"/>
    <line id="XMLID_293_" y2="31.9" stroke-width="9" transform="translate(1169.8 351.2)" stroke="#101219" stroke-linecap="round" stroke-linejoin="round" stroke-miterlimit="10" fill="#bfcfe8"/>
    <line id="XMLID_305_" y2="10.2" stroke-width="9" transform="translate(1169.8 397.9)" stroke="#101219" stroke-linecap="round" stroke-linejoin="round" stroke-miterlimit="10" fill="#bfcfe8"/>
    <line id="XMLID_339_" y2="31.9" stroke-width="9" transform="translate(1000.6 351.2)" stroke="#101219" stroke-linecap="round" stroke-linejoin="round" stroke-miterlimit="10" fill="#bfcfe8"/>
    <line id="XMLID_306_" y2="10.2" stroke-width="9" transform="translate(1000.6 397.9)" stroke="#101219" stroke-linecap="round" stroke-linejoin="round" stroke-miterlimit="10" fill="#bfcfe8"/>
    <line id="XMLID_259_" y2="23.8" stroke-width="9" transform="translate(1063.1 442.3)" stroke="#101219" stroke-linecap="round" stroke-linejoin="round" stroke-miterlimit="10" fill="#bfcfe8"/>
    <line id="XMLID_284_" y2="12.2" stroke-width="9" transform="translate(1063.1 484.4)" stroke="#101219" stroke-linecap="round" stroke-linejoin="round" stroke-miterlimit="10" fill="#bfcfe8"/>
    <line id="XMLID_285_" y2="32.3" stroke-width="9" transform="translate(1043.3 438.9)" stroke="#101219" stroke-linecap="round" stroke-linejoin="round" stroke-miterlimit="10" fill="#bfcfe8"/>
    <line id="XMLID_260_" y2="28.6" stroke-width="9" transform="translate(1108.3 475.8)" stroke="#101219" stroke-linecap="round" stroke-linejoin="round" stroke-miterlimit="10" fill="#bfcfe8"/>
    <g id="XMLID_225_">
      <g id="XMLID_40_">
        <g id="XMLID_251_">
          <path id="XMLID_329_" d="M1058,443.9a24.084,24.084,0,0,1-19.9-10.6c-12.8-18.9-16.3-44.3-16.9-62.3a193.076,193.076,0,0,1,.8-25.7,4.536,4.536,0,0,1,4.5-4h34.6a4.626,4.626,0,0,1,3.2,1.3,4.816,4.816,0,0,1,1.3,3.2l-.6,67.5-.2,23.9a6.831,6.831,0,0,1-6.8,6.7Z" fill="#95a5c9"/>
          <path id="XMLID_323_" d="M1061,345.8l-.6,67.5-.2,23.9a2.36,2.36,0,0,1-.7,1.6,2.111,2.111,0,0,1-1.6.6,19.831,19.831,0,0,1-16.2-8.6c-12.1-17.8-15.5-42-16.2-60a175.922,175.922,0,0,1,.8-25H1061m0-9h-34.6a8.97,8.97,0,0,0-8.9,7.9,170,170,0,0,0-.8,26.4c.7,18.6,4.3,44.9,17.7,64.7a28.608,28.608,0,0,0,23.6,12.6,11.268,11.268,0,0,0,11.2-11.2l.2-23.9.6-67.5a9,9,0,0,0-2.6-6.4,9.438,9.438,0,0,0-6.4-2.6Z" fill="#101219"/>
        </g>
        <g id="XMLID_250_">
          <path id="XMLID_316_" d="M1112.4,443.9a6.345,6.345,0,0,1-4.7-2,6.679,6.679,0,0,1-2-4.7l-.2-23.8-.6-67.5a4.626,4.626,0,0,1,1.3-3.2,4.224,4.224,0,0,1,3.2-1.3H1144a4.536,4.536,0,0,1,4.5,4,174.666,174.666,0,0,1,.8,25.7c-.6,18-4.1,43.4-16.9,62.3A24.3,24.3,0,0,1,1112.4,443.9Z" fill="#95a5c9"/>
          <path id="XMLID_308_" d="M1144,345.8a175.922,175.922,0,0,1,.8,25c-.6,18-4.1,42.1-16.2,60a19.444,19.444,0,0,1-16.2,8.6,2.271,2.271,0,0,1-1.6-.6,2.36,2.36,0,0,1-.7-1.6l-.2-23.9-.6-67.5H1144m0-9h-34.6a9.093,9.093,0,0,0-6.4,2.7,9,9,0,0,0-2.6,6.4l.6,67.5.2,23.9a11.268,11.268,0,0,0,11.2,11.2,28.342,28.342,0,0,0,23.6-12.6c13.4-19.8,17-46.1,17.7-64.7a204.8,204.8,0,0,0-.8-26.4,8.974,8.974,0,0,0-8.9-8Z" fill="#101219"/>
        </g>
        <path id="XMLID_236_" d="M1026.4,345.8H1061l-.6,67.5-5.9-10.6-16.9-30.4-12-1.5A175.922,175.922,0,0,1,1026.4,345.8Z" fill="#7e94af"/>
        <path id="XMLID_238_" d="M1144.7,370.8l-12,1.5-16.8,30.4-5.9,10.6-.6-67.5H1144A168.486,168.486,0,0,1,1144.7,370.8Z" fill="#7e94af"/>
      </g>
      <g id="XMLID_278_">
        <path id="XMLID_265_" d="M1085.2,418.3a11.154,11.154,0,0,1-9.8-5.8l-28.1-50.7a4.554,4.554,0,0,0-3.4-2.3L1000,354a4.45,4.45,0,0,1-3.9-4.5c0-77.2,61.5-175,80.3-203.2a10.588,10.588,0,0,1,17.6,0c18.8,28.1,80.3,126,80.3,203.2a4.534,4.534,0,0,1-3.9,4.5l-43.9,5.5a4.831,4.831,0,0,0-3.4,2.3L1095,412.5A11.154,11.154,0,0,1,1085.2,418.3Z" fill="#95a5c9"/>
        <path id="XMLID_200_" d="M1085.2,146.2a6.141,6.141,0,0,1,5.1,2.7c18.3,27.3,79.5,124.5,79.5,200.7L1126,355a9.192,9.192,0,0,0-6.8,4.6l-19,34.4-9.1,16.4a6.624,6.624,0,0,1-5.8,3.4,6.4,6.4,0,0,1-5.8-3.4l-9.1-16.4-19-34.4a8.937,8.937,0,0,0-6.8-4.6l-43.8-5.5c0-76.2,61.3-173.4,79.5-200.7a5.694,5.694,0,0,1,4.9-2.6m0-9a15.031,15.031,0,0,0-12.5,6.7c-19,28.4-81.1,127.2-81.1,205.7a8.97,8.97,0,0,0,7.9,8.9l43.8,5.5a.1.1,0,0,1,.1.1l19,34.4,9.1,16.4a15.636,15.636,0,0,0,27.4,0l9.1-16.4,19-34.4h.1l43.8-5.5a9.044,9.044,0,0,0,7.9-8.9c0-78.5-62.1-177.3-81.1-205.7a14.883,14.883,0,0,0-12.5-6.8Z" fill="#101219"/>
      </g>
    </g>
    <g id="XMLID_240_">
      <path id="XMLID_230_" d="M1116,293.4l-6.5-7.9a24.092,24.092,0,0,0-18.6-8.7h-11.3a24.092,24.092,0,0,0-18.6,8.7l-6.5,7.9a23.251,23.251,0,0,0-5.3,14.7v26.5a23.669,23.669,0,0,0,23.9,23.4h24.3a23.669,23.669,0,0,0,23.9-23.4V308.1A23.047,23.047,0,0,0,1116,293.4Z" fill="#7e94af"/>
      <g id="XMLID_45_">
        <g id="XMLID_47_">
          <path id="XMLID_297_" d="M1073,344.5a10.166,10.166,0,0,1-10.4-9.9V308.1a9.708,9.708,0,0,1,2.2-6.1l6.5-7.9a10.654,10.654,0,0,1,8.2-3.8h11.3a10.654,10.654,0,0,1,8.2,3.8l6.5,7.9a9.707,9.707,0,0,1,2.2,6.1v26.5a10.166,10.166,0,0,1-10.4,9.9Z" fill="#5ef7f7"/>
          <g id="XMLID_274_">
            <path id="XMLID_276_" d="M1090.8,294.7a6.273,6.273,0,0,1,4.7,2.1l6.5,7.9a4.971,4.971,0,0,1,1.2,3.3v26.5a5.629,5.629,0,0,1-5.9,5.4H1073a5.692,5.692,0,0,1-5.9-5.4V308a5.164,5.164,0,0,1,1.2-3.3l6.5-7.9a5.8,5.8,0,0,1,4.7-2.1h11.3m0-9h-11.3a14.923,14.923,0,0,0-11.6,5.4l-6.5,7.9a13.958,13.958,0,0,0-3.2,9v26.5c0,7.9,6.7,14.4,14.9,14.4h24.3c8.2,0,14.9-6.5,14.9-14.4V308a14.974,14.974,0,0,0-3.2-9l-6.5-7.9a15.488,15.488,0,0,0-11.8-5.4Z" fill="#101219"/>
          </g>
        </g>
        <line id="XMLID_46_" y2="18.3" stroke-width="9" transform="translate(1088.6 309.9)" stroke="#c7fffd" stroke-linecap="round" stroke-linejoin="round" stroke-miterlimit="10" fill="none"/>
      </g>
      <line id="XMLID_188_" y2="13.8" stroke-width="9" transform="translate(1085.2 345.8)" stroke="#101219" stroke-linecap="round" stroke-linejoin="round" stroke-miterlimit="10" fill="#95a5c9"/>
      <line id="XMLID_194_" y2="20.3" stroke-width="9" transform="translate(1085.2 267.9)" stroke="#101219" stroke-linecap="round" stroke-linejoin="round" stroke-miterlimit="10" fill="#95a5c9"/>
    </g>
    <g id="XMLID_237_">
      <path id="XMLID_272_" d="M1085.2,418.3a11.154,11.154,0,0,1-9.8-5.8l-9.1-16.4a4.5,4.5,0,0,1,1.2-5.8,30.593,30.593,0,0,1,35-.2,4.484,4.484,0,0,1,1.5,5.9l-9.1,16.4A10.789,10.789,0,0,1,1085.2,418.3Z" fill="#7e94af"/>
      <g id="XMLID_267_">
        <path id="XMLID_268_" d="M1085.2,389.3a27.123,27.123,0,0,1,14.9,4.7l-9.1,16.4a6.624,6.624,0,0,1-5.8,3.4,6.4,6.4,0,0,1-5.8-3.4l-9.1-16.4a26.638,26.638,0,0,1,14.9-4.7m0-9h0a36.356,36.356,0,0,0-20.4,6.5,8.878,8.878,0,0,0-2.4,11.5l9.1,16.4a15.636,15.636,0,0,0,27.4,0l9.1-16.4a9.035,9.035,0,0,0-2.9-11.9,36.58,36.58,0,0,0-19.9-6.1Z" fill="#101219"/>
      </g>
    </g>
    <line id="XMLID_48_" y1="57.9" stroke-width="9" transform="translate(1085.2 386.9)" stroke="#101219" stroke-linecap="round" stroke-linejoin="round" stroke-miterlimit="10" fill="#7e94af"/>
    <g id="XMLID_233_">
      <g id="XMLID_41_">
        <line id="XMLID_42_" x2="5" stroke-width="9" transform="translate(1131.5 330.5)" stroke="#101219" stroke-linecap="round" stroke-linejoin="round" stroke-miterlimit="10" fill="#95a5c9"/>
        <line id="XMLID_43_" x2="5" stroke-width="9" transform="translate(1131.5 315.6)" stroke="#101219" stroke-linecap="round" stroke-linejoin="round" stroke-miterlimit="10" fill="#95a5c9"/>
        <line id="XMLID_220_" x2="5" stroke-width="9" transform="translate(1131.5 300.7)" stroke="#101219" stroke-linecap="round" stroke-linejoin="round" stroke-miterlimit="10" fill="#95a5c9"/>
      </g>
      <g id="XMLID_227_">
        <line id="XMLID_232_" x2="5" stroke-width="9" transform="translate(1033.9 330.5)" stroke="#101219" stroke-linecap="round" stroke-linejoin="round" stroke-miterlimit="10" fill="#95a5c9"/>
        <line id="XMLID_231_" x2="5" stroke-width="9" transform="translate(1033.9 315.6)" stroke="#101219" stroke-linecap="round" stroke-linejoin="round" stroke-miterlimit="10" fill="#95a5c9"/>
        <line id="XMLID_228_" x2="5" stroke-width="9" transform="translate(1033.9 300.7)" stroke="#101219" stroke-linecap="round" stroke-linejoin="round" stroke-miterlimit="10" fill="#95a5c9"/>
      </g>
    </g>
    <line id="XMLID_102_" y1="10.3" stroke-width="9" transform="translate(1085.2 460.9)" stroke="#101219" stroke-linecap="round" stroke-linejoin="round" stroke-miterlimit="10" fill="#7e94af"/>
    <line id="XMLID_286_" y1="24.8" stroke-width="9" transform="translate(1085.2 487.8)" stroke="#101219" stroke-linecap="round" stroke-linejoin="round" stroke-miterlimit="10" fill="#7e94af"/>
  </g>
</svg>
